<?xml version="1.0" encoding="utf-8"?>
<!-- Generator: Adobe Illustrator 23.1.0, SVG Export Plug-In . SVG Version: 6.00 Build 0)  -->
<svg version="1.1" id="暂无内容" xmlns="http://www.w3.org/2000/svg" xmlns:xlink="http://www.w3.org/1999/xlink" x="0px"
	 y="0px" viewBox="0 0 800 800" style="enable-background:new 0 0 800 800;" xml:space="preserve">
<style type="text/css">
	.st0{fill:#F7A152;}
	.st1{fill:#FD9CAB;}
	.st2{fill:#FCFCFC;}
	.st3{fill:#FFFFFF;}
	.st4{fill:#333B44;}
	.st5{fill:#F7935C;}
	.st6{fill:#EF7062;}
	.st7{fill:#FFB07D;}
	.st8{fill:#FF7931;}
	.st9{fill:#F2B655;}
	.st10{fill:#F7F89B;}
	.st11{fill:none;stroke:#333B44;stroke-width:8;stroke-linecap:round;stroke-linejoin:round;stroke-miterlimit:10;}
	.st12{fill:#FFEED9;}
	.st13{fill:#F7E9CF;}
	.st14{fill:#FF5F57;}
	.st15{fill:#F39800;}
	.st16{fill:#E58339;}
	.st17{fill:#FFEAD9;}
	.st18{fill:#FFD6B8;}
	.st19{fill:#E7D6BB;}
	.st20{fill:#FF9C4A;}
	.st21{fill:#E8D7BB;}
	.st22{fill:#FE8804;}
	.st23{fill:#EF6054;}
	.st24{fill:#FEF388;}
	.st25{fill:#FBEE86;}
	.st26{fill:#FEB706;}
	.st27{fill:#FF7443;}
	.st28{fill:#E17547;}
	.st29{fill:#FED590;}
	.st30{fill:#FF8431;}
	.st31{fill:#FDD59A;}
	.st32{fill:#FDF2D6;}
	.st33{fill:#DD6C10;}
	.st34{fill:#FFD7B3;}
	.st35{fill:#FF7300;}
	.st36{fill:#EF2E1F;}
	.st37{fill:#FE9220;}
	.st38{fill:#FFBC13;}
	.st39{fill:#E8B792;}
	.st40{fill:#FAC2AB;}
	.st41{fill:#ECAFAF;}
	.st42{fill:#FFE0C2;}
	.st43{fill:#FF647E;}
	.st44{fill:#D8C29E;}
	.st45{fill:#F98E23;}
	.st46{fill:#FFBE88;}
	.st47{fill:#F5B400;}
</style>
<g>
	<g>
		<path class="st22" d="M703.33,374.39c-53.6-39.56-2.46-100.83,26.61-137.53c2.67-3.37-1.3-7.95-5.02-5.8
			c-68.6,39.83-78.08-9.75-79.85-19.52c-1.74-9.56,4.39-20.69,1.3-48.32c-0.38-3.37-4.61-4.77-6.82-2.2
			c-28.58,33.35-63.69,23.88-74.06,20.06c-1.87-0.69-2.91-2.63-2.45-4.56c1.61-6.67,7.71-22.8,30.68-43.25
			c2.46-2.19,1.32-6.29-1.93-6.82c-42.5-6.97-76.4,4.44-116.43,46.4c-2.68,2.81-7.33,0.4-6.64-3.42
			c16.21-90.27-64.36-116.36-64.36-116.36h-2.77c0,0-80.58,26.09-64.36,116.36c0.69,3.82-3.96,6.23-6.64,3.42
			c-40.03-41.96-73.93-53.37-116.43-46.4c-3.25,0.53-4.39,4.63-1.93,6.82c22.97,20.45,29.07,36.58,30.68,43.25
			c0.47,1.93-0.58,3.87-2.45,4.56c-10.37,3.82-45.48,13.29-74.06-20.06c-2.21-2.58-6.44-1.17-6.82,2.2
			c-3.08,27.63,3.04,38.76,1.3,48.32c-1.78,9.77-11.25,59.36-79.85,19.52c-3.72-2.16-7.69,2.43-5.02,5.8
			c29.07,36.69,80.21,97.97,26.61,137.53c-2.66,1.96-1.75,6.15,1.47,6.9c45.64,10.73,69.61,32.22,78.75,42.31
			c2.24,2.47,0.52,6.5-2.81,6.51c-6.32,0.03-16.65-1.68-30.58-9.74c-2.91-1.68-6.5,0.88-5.8,4.17c6.13,28.79,39.2,57.42,70.88,69.07
			c3.32,1.22,3.34,5.87,0.08,7.25c-49.42,20.86-60.03,41.69-61.63,62.04c-0.24,2.99,2.94,5.08,5.63,3.75
			c24.54-12.07,49.77-24.61,74.16-28.06c4.07-0.58,6.15,4.73,2.78,7.08c-11.16,7.77-15.7,16.88-17.53,23.47
			c-0.95,3.43,2.92,6.19,5.9,4.25c16.56-10.77,58.6-35.62,87.73-31.07c0.33,0.05,0.65,0.14,0.96,0.27
			c5.04,2.04,50.34,19.42,76.59-5.43c1.93-1.82,1.43-5.07-0.93-6.26c-2.36-1.19-4.53-2.71-6.44-4.5c-2.9-2.72-7.24-3.29-10.76-1.44
			c-3.9,2.05-8.48,3.24-13.39,3.24c-14.21,0-25.72-9.88-25.72-22.06c0-12.18,11.52-22.06,25.72-22.06c4.91,0,9.49,1.18,13.38,3.23
			c3.52,1.85,7.87,1.29,10.77-1.43c4.96-4.66,11.62-7.51,18.96-7.51c7.29,0,13.92,2.82,18.87,7.43c2.8,2.61,7.01,3.13,10.41,1.39
			c3.84-1.97,8.32-3.1,13.12-3.1c14.21,0,25.72,9.88,25.72,22.06c0,12.18-11.52,22.06-25.72,22.06c-4.7,0-9.1-1.09-12.89-2.98
			c-3.51-1.76-7.83-1.34-10.71,1.33c-1.77,1.64-3.75,3.04-5.9,4.18c-2.25,1.19-2.69,4.32-0.95,6.17
			c26.49,28.31,75.09,8.14,80.59,5.73c0.34-0.15,0.7-0.26,1.07-0.32c29.13-4.51,71.12,20.31,87.68,31.07
			c2.98,1.94,6.86-0.82,5.9-4.25c-1.83-6.59-6.37-15.69-17.53-23.47c-3.37-2.35-1.29-7.66,2.78-7.08
			c24.39,3.45,49.62,15.99,74.16,28.06c2.69,1.32,5.87-0.76,5.63-3.75c-1.61-20.36-12.21-41.18-61.63-62.04
			c-3.26-1.37-3.24-6.03,0.08-7.25c31.68-11.65,64.75-40.28,70.88-69.07c0.7-3.29-2.89-5.85-5.8-4.17
			c-13.93,8.06-24.27,9.76-30.58,9.74c-3.34-0.01-5.06-4.04-2.81-6.51c9.14-10.09,33.11-31.58,78.75-42.31
			C705.08,380.53,705.99,376.35,703.33,374.39z"/>
	</g>
	<g>
		<path class="st22" d="M488.21,549.75c-0.67,23.3,26.67,63.36,39.62,99.8c13.06,36.76,11.26,109.99-123.64,109.99
			s-140.33-61.86-129.57-97.69c10.99-36.61,29.59-102.23,29.59-102.23L488.21,549.75z"/>
	</g>
	<g>
		<path class="st23" d="M323.96,548.46c0,0,8.84,50.49-1.38,81.63c-15.45,47.07,1.39,84.41,86.51,81.63
			c82.48-2.69,75.65-60.36,74.7-67.69c-3.65-28.24-26.36-36.57-12.87-92.03L323.96,548.46z"/>
	</g>
	<g>
		<path class="st24" d="M567.52,366.74c-6.68-3.36-14.89-1.53-19.52,4.36c-7.99,10.16-29.87,11.83-50,12.12
			c-0.36,0-0.8,0.02-1.15,0.04c-0.17,0.01-0.35,0.03-0.52,0.05c-69.49,7.39-91.87,64.78-95.65,76.21c0,0.01-0.01,0.03-0.01,0.04
			c-0.21,0.64-0.35,1.29-0.48,1.94c-0.13-0.65-0.27-1.3-0.48-1.94c0-0.01-0.01-0.03-0.01-0.04c-3.78-11.43-26.16-68.83-95.65-76.21
			c-0.17-0.02-0.35-0.03-0.52-0.05c-0.29-0.02-0.65-0.04-0.94-0.04c-20.35-0.3-42.23-1.97-50.22-12.13
			c-4.63-5.88-12.83-7.71-19.49-4.37c-6.66,3.34-10.09,11-8.15,18.23c1.54,5.67,2.93,11.53,4.27,17.19
			c8.35,35.17,18.75,78.95,75.33,78.95c23.57,0,39.15-1.95,50.52-3.37c14.42-1.8,17.66-1.94,22.29,0.6
			c5.73,3.11,12.67,2.43,17.68-1.75c2.88-2.4,4.69-5.64,5.36-9.14c0.67,3.5,2.49,6.75,5.38,9.15c5.02,4.17,11.97,4.84,17.7,1.71
			c4.59-2.51,7.82-2.38,22.25-0.57c11.38,1.42,26.96,3.37,50.52,3.37c56.59,0,66.97-43.78,75.32-78.96
			c1.34-5.66,2.73-11.51,4.26-17.14C577.6,377.78,574.19,370.1,567.52,366.74z"/>
	</g>
	<g>
		<circle class="st3" cx="488.36" cy="433.4" r="33.13"/>
	</g>
	<g>
		<path class="st25" d="M193.22,57.07c0.13,29.76,4.97,113.96,53.49,155.44c-0.96-36.5,10.42-55.06,23.87-57.23
			c14.44-2.32,17.87,31.73,24.59,49.98c6.72,18.25,23.56,34.92,38.93,56.05c15.37,21.13,19.23,62.61,19.23,108.71
			c0,14.41-14.89,20.17-28.81-6.96s-18.97-53.54-75.15-97.48c-54.78-42.84-92.44-87.51-78.27-209.67c0.64-5.52,5.31-9.74,10.87-9.76
			c0.1,0,0.19,0,0.29,0C188.3,46.13,193.19,51.01,193.22,57.07z"/>
	</g>
	<g>
		<path class="st25" d="M602.8,57.07c-0.13,29.76-4.97,113.96-53.49,155.44c0.96-36.5-10.42-55.06-23.87-57.23
			c-14.44-2.32-17.87,31.73-24.59,49.98s-23.56,34.92-38.93,56.05c-15.37,21.13-19.23,62.61-19.23,108.71
			c0,14.41,14.89,20.17,28.81-6.96s18.97-53.54,75.15-97.48c54.78-42.84,92.44-87.51,78.27-209.67c-0.64-5.52-5.31-9.74-10.87-9.76
			c-0.1,0-0.19,0-0.29,0C607.72,46.13,602.83,51.01,602.8,57.07z"/>
	</g>
	<g>
		<circle class="st3" cx="312.01" cy="433.4" r="33.13"/>
	</g>
	<g>
		<path class="st26" d="M449.79,485.15c-6.52,0-12.53,2.2-17.42,5.9c-2.69,2.04-6.14,1.02-8.33-1.77
			c-5.84-7.46-14.08-12.13-23.24-12.13c-9.44,0-17.91,4.96-23.77,12.83c-2.11,2.83-5.63,3.37-8.28,1.31
			c-4.95-3.85-11.09-6.14-17.75-6.14c-16.41,0-29.72,13.83-29.72,30.9c0,17.06,13.3,30.9,29.72,30.9c6.66,0,12.8-2.29,17.75-6.14
			c2.65-2.06,6.17-1.52,8.28,1.31c5.86,7.87,14.33,12.83,23.77,12.83c9.16,0,17.4-4.66,23.24-12.13c2.19-2.79,5.63-3.81,8.33-1.77
			c4.89,3.71,10.91,5.9,17.42,5.9c16.41,0,29.72-13.83,29.72-30.9C479.51,498.98,466.2,485.15,449.79,485.15z"/>
	</g>
	<g>
		<path class="st4" d="M400.8,577.46c-11.23,0-21.85-5.28-29.92-14.68c-6.06,3.7-12.82,5.62-19.88,5.62
			c-23.1,0-41.88-21.16-41.88-47.17c0-26.01,18.79-47.17,41.88-47.17c6.94,0,13.8,1.97,19.86,5.64c8.07-9.41,18.7-14.7,29.94-14.7
			c11.06,0,21.62,5.17,29.66,14.37c5.93-3.49,12.5-5.31,19.33-5.31c23.1,0,41.88,21.16,41.88,47.17c0,26.01-18.79,47.17-41.88,47.17
			c-6.84,0-13.41-1.82-19.33-5.31C422.41,572.28,411.86,577.46,400.8,577.46z M424.44,558.78
			C424.45,558.78,424.45,558.78,424.44,558.78C424.45,558.78,424.45,558.78,424.44,558.78z M372.28,535.69
			c0.74,0,1.49,0.05,2.23,0.15c5.07,0.68,9.7,3.68,12.69,8.23c3.78,5.75,8.74,9.05,13.6,9.05c6.41,0,11.04-5.31,13.23-8.48
			c3.2-4.64,7.96-7.68,13.07-8.34c4.77-0.59,9.47,0.81,13.2,4.02c1.99,1.71,5.26,3.75,9.5,3.75c9.51,0,17.55-10.46,17.55-22.84
			c0-12.38-8.04-22.84-17.55-22.84c-4.24,0-7.51,2.04-9.5,3.75c-3.73,3.2-8.42,4.61-13.19,4.01c-5.1-0.66-9.87-3.7-13.07-8.34
			c-2.18-3.17-6.81-8.48-13.22-8.48c-4.86,0-9.82,3.3-13.6,9.05c-3,4.55-7.63,7.55-12.7,8.23c-4.93,0.65-9.95-0.91-13.8-4.3
			c-2.03-1.79-5.35-3.92-9.71-3.92c-9.51,0-17.55,10.46-17.55,22.84c0,12.38,8.04,22.84,17.55,22.84c4.35,0,7.68-2.13,9.71-3.92
			C363.97,537.26,368.1,535.69,372.28,535.69z M424.45,483.66C424.44,483.66,424.44,483.66,424.45,483.66
			C424.44,483.66,424.44,483.66,424.45,483.66z"/>
	</g>
	<g>
		<path class="st3" d="M318.31,672.09c0,0-4.2-48.82,21.76-48.8c26.99,0.02,29.74,83.62,29.74,83.62S330.84,702.53,318.31,672.09z"
			/>
	</g>
	<g>
		<path class="st3" d="M480.94,672.09c0,0-6.29-52.04-21.76-48.8c-15.46,3.24-20.3,77.24-20.3,77.24S468.41,702.53,480.94,672.09z"
			/>
	</g>
	<g>
		<polygon class="st3" points="341.24,561.67 374.93,564.39 356.29,603.51 342.44,604.48 		"/>
	</g>
	<g>
		<polygon class="st3" points="455.9,561.67 422.22,564.39 440.85,603.51 454.7,604.48 		"/>
	</g>
	<path class="st4" d="M779.36,433.98c-0.58-6.7-6.45-11.61-13.17-11.08c-25.79,2.24-48.53-6.13-74.24-20.15
		c5.27-1.77,10.91-3.41,16.99-4.84c6.11-1.43,10.87-6.33,12.13-12.47c1.28-6.21-1.1-12.4-6.19-16.16
		c-11.01-8.12-17.05-17.32-18.49-28.13c-3.85-29,25.68-66.18,45.23-90.79l2.56-3.22c4.88-6.16,4.69-14.61-0.45-20.56
		c-5.15-5.95-13.48-7.35-20.29-3.4c-21.67,12.59-38.6,16.72-48.95,11.93c-7.03-3.25-11.73-11.11-13.96-23.39
		c-0.36-1.96,0.1-5.29,0.69-9.51c1.18-8.58,2.8-20.33,0.76-38.66c-0.71-6.41-5.16-11.78-11.33-13.68c-3.71-1.14-7.61-0.87-11.04,0.6
		c4.43-26.17,5.09-57.47,0.64-95.83c-1.36-11.74-11.28-20.62-22.87-20.66c-0.09,0-0.48,0-0.56,0c-12.79,0-23.22,10.4-23.27,23.2
		c-0.05,12.21-3.23,33.49-10.7,56.81c-36.27-2.74-67.18,8.59-98.81,36.45C485.82,67.79,409,41.87,408.15,41.6
		c-1.21-0.39-2.48-0.59-3.75-0.59h-2.82c-1.27,0-2.54,0.2-3.75,0.59c-0.85,0.27-77.66,26.19-75.87,108.83
		c-34.4-30.3-67.95-41.03-108.51-35.39c-7.72-23.73-10.98-45.47-11.04-57.87c-0.05-12.8-10.48-23.2-23.58-23.2
		c-0.02,0-0.04,0-0.06,0c-11.79,0.04-21.71,8.92-23.07,20.66c-4.41,37.96-3.81,69.04,0.49,95.04c-0.29,0.07-0.58,0.11-0.87,0.2
		c-6.17,1.9-10.61,7.27-11.33,13.67c-2.05,18.34-0.43,30.09,0.76,38.67c0.58,4.22,1.04,7.55,0.69,9.51
		c-2.23,12.27-6.93,20.14-13.96,23.39c-10.35,4.79-27.28,0.65-48.96-11.93c-6.8-3.95-15.15-2.55-20.28,3.4
		c-5.14,5.95-5.33,14.4-0.45,20.55l2.56,3.23c19.54,24.61,49.07,61.79,45.23,90.79c-1.43,10.81-7.48,20.01-18.48,28.13
		c-5.1,3.76-7.47,9.95-6.2,16.16c1.26,6.14,6.02,11.04,12.12,12.47c4.74,1.11,9.21,2.36,13.45,3.69
		c-26.54,14.7-49.79,23.61-76.32,21.3c-6.74-0.52-12.59,4.39-13.17,11.08c-0.57,6.69,4.38,12.59,11.08,13.17
		c3.56,0.3,7.05,0.46,10.5,0.46c34.07,0,63.15-14.54,96.25-34.28c0.2,0.1,0.41,0.21,0.6,0.31c-1.8,0.51-3.53,1.33-5.09,2.47
		c-5.15,3.73-7.62,10.16-6.3,16.37c6.29,29.53,33.94,56.08,62.59,71.29c-34.99,17.73-51.18,37.92-53.36,65.53
		c-0.46,5.73,2.22,11.31,6.99,14.55c4.81,3.27,11.02,3.7,16.22,1.14l0.99-0.49c15.18-7.47,30.68-15.1,45.79-20.45
		c-1.71,3.37-2.85,6.53-3.62,9.3c-1.79,6.49,0.57,13.25,6,17.23c5.47,4.01,12.67,4.21,18.34,0.52
		c16.38-10.65,32.07-18.73,45.86-23.83c-0.22,5.95-0.56,13.41-1.09,21.68c-8.96,12.19-19.95,22.65-32.67,30.58
		c-28.53,17.77-60.49,19.63-90,5.24c-69.08-33.69-35.28-131.98-33.81-136.15c2.25-6.32-1.06-13.27-7.39-15.53
		c-6.33-2.25-13.29,1.05-15.54,7.38c-15.08,42.34-24.85,131.57,46.07,166.16c16.36,7.98,33.64,11.95,50.9,11.95
		c21.52,0,43-6.17,62.64-18.4c5.61-3.5,10.94-7.41,15.98-11.67c-1.52,11.02-3.48,21.46-5.99,29.84c-7.87,26.21-4.41,51.1,9.73,70.11
		c21.35,28.7,65.59,43.25,131.5,43.25c62.72,0,105.35-15.34,126.71-45.59c15.43-21.86,18.57-52,8.4-80.64
		c-1.83-5.15-3.28-10.33-4.46-15.48c4.51,3.68,9.22,7.11,14.17,10.19c19.64,12.23,41.12,18.4,62.64,18.4
		c17.26,0,34.53-3.97,50.9-11.95c70.92-34.59,61.14-123.82,46.07-166.16c-2.25-6.33-9.2-9.62-15.52-7.38
		c-6.33,2.25-9.64,9.2-7.4,15.53c1.47,4.17,35.27,102.45-33.81,136.15c-29.51,14.39-61.48,12.54-90-5.24
		c-12.09-7.53-22.61-17.36-31.33-28.79c-0.12-8.56,0.17-16.59,0.48-23.84c14.07,5.07,30.15,13.27,46.96,24.21
		c2.71,1.76,5.75,2.63,8.8,2.63c3.35,0,6.69-1.06,9.55-3.16c5.44-3.98,7.79-10.75,5.99-17.23c-0.76-2.76-1.91-5.92-3.61-9.29
		c15.1,5.35,30.6,12.97,45.77,20.44l1.01,0.5c5.19,2.56,11.4,2.13,16.21-1.13c4.77-3.24,7.46-8.81,7.01-14.55
		c-2.18-27.63-18.38-47.81-53.36-65.54c28.64-15.21,56.3-41.76,62.58-71.29c0.77-3.6,0.23-7.26-1.34-10.44
		c27.12,15.14,52.36,25.56,81.18,25.56c3.44,0,6.94-0.15,10.5-0.46C774.98,446.57,779.94,440.68,779.36,433.98z M573.77,137.9
		c-0.69,1.57-1.38,3.14-2.11,4.7c-10.34,12.47-15.08,22.84-17.24,29.73c-0.82,1.15-1.59,2.32-2.44,3.45
		c-0.56-15.36-3-26.4-10.49-32.83C551.83,139.35,562.45,137.74,573.77,137.9z M516.91,183c0.96-6.48,2.96-19.98,5.66-21.98
		c0.06-0.02,0.19-0.03,0.39-0.03c0.39,0,1.04,0.06,1.97,0.29c0.29,0.07,0.42,0.11,0.41,0.11c3.12,3.47,2.57,24.41,2.08,42.88
		l-0.06,2.34c-0.13,4.81,2.59,9.23,6.93,11.3c4.34,2.07,9.49,1.39,13.14-1.73c7.28-6.22,13.81-13.18,19.79-20.55l14.98-21.31
		c3.6-5.93,6.87-11.99,9.85-18.11c5.68-10.91,14.1-35.19,14.1-35.19c6.32-19.81,9.79-38.32,11.1-52.27
		c4.14,44.4,0.88,77.33-7.58,103.32l-11.96,27.18c-14.05,24.63-33.96,42.29-56.44,59.86c-49.87,39-62.28,65.91-73.23,89.66
		c-2.11,4.58-4.11,8.91-6.33,13.25c-2.41,4.69-4.55,7.7-6.23,9.61c0.29-46.74,7.31-81.86,19.84-99.09
		c14.93-20.53,29.09-46.54,36.95-67.87C514.66,198.2,515.8,190.47,516.91,183z M488.35,412.43c11.56,0,20.97,9.41,20.97,20.97
		c0,11.56-9.41,20.97-20.97,20.97c-11.56,0-20.97-9.41-20.97-20.97C467.39,421.84,476.79,412.43,488.35,412.43z M257.36,140.8
		c-6.24,3.78-9.69,9.96-11.55,18.37c-3.41-6.16-8.35-13.35-15.54-21.27C239.74,137.61,248.67,138.56,257.36,140.8z M178.71,68.75
		c2.48,26.48,12.82,69.31,35.6,106.44l16.15,22.57c5.51,6.58,11.49,12.8,18.07,18.42c3.65,3.12,8.8,3.81,13.14,1.73
		c4.34-2.07,7.05-6.5,6.93-11.3l-0.06-2.34c-0.49-18.53-1.05-39.53,2.02-42.84c0,0,0.13-0.07,0.48-0.16
		c1.42-0.35,2.19-0.3,2.21-0.33c2.85,2.08,4.84,15.57,5.81,22.05c1.11,7.48,2.25,15.21,4.63,21.67
		c7.86,21.33,22.02,47.34,36.95,67.87c12.53,17.24,19.55,52.35,19.84,99.09c-1.68-1.91-3.82-4.92-6.23-9.61
		c-2.23-4.33-4.22-8.66-6.33-13.24c-10.95-23.75-23.36-50.66-73.22-89.66c-22.95-17.95-43.23-35.97-57.33-61.42
		c-7.9-12.64-12.96-31.89-12.96-31.89C177.37,140.82,174.9,109.66,178.71,68.75z M332.98,433.4c0,11.56-9.41,20.97-20.97,20.97
		c-11.56,0-20.97-9.41-20.97-20.97c0-11.56,9.41-20.97,20.97-20.97C323.58,412.43,332.98,421.84,332.98,433.4z M145,381.14
		c-2.52,1.54-4.99,3.05-7.43,4.54c-6.13-2.65-12.81-5.15-20.08-7.41c9.12-9.89,14.56-21.25,16.25-33.91
		c3.96-29.89-13.7-60.45-32.7-86.35c15.74,4.68,29.37,4.42,40.68-0.8c10.07-4.65,23.05-15.56,27.7-41.13
		c1.05-5.79,0.32-11.07-0.52-17.19c-0.29-2.11-0.6-4.37-0.86-6.84c16.04,39.11,42.86,63.69,71.68,86.23
		c35.75,27.96,49.86,48.2,59.28,66.47c-25.55-10.5-61.25-15.87-101.13,5.53C178.33,360.75,160.62,371.58,145,381.14z M511.02,712.08
		c-16.3,23.09-53.24,35.29-106.83,35.29c-56.98,0-95.7-11.56-111.98-33.44c-12.09-16.25-9.9-35.39-5.94-48.59
		c5.62-18.71,8.68-45.48,10.34-68.12c6.82-10.31,12.45-21.5,16.75-33.35c1.87,15.46,4.27,45.82-2.33,65.94
		c-9.23,28.13-7.4,51.08,5.45,68.23c14.68,19.6,42.95,29.51,84.1,29.51c2.9,0,5.88-0.05,8.91-0.15c16.52-0.54,30.82-3.2,42.86-7.92
		c10.26-3.44,21.94-9.9,30.51-22.09c15.11-19.5,14.17-42.27,13-51.39c-1.43-11.08-5.17-19.27-8.78-27.21
		c-5.78-12.68-11.24-24.78-6.2-51.63c2.97-0.77,5.68-1.58,8.08-2.35c4.47,12.1,10.34,23.52,17.44,33.98
		c0.7,17.02,3.19,35.77,9.97,54.84C519.19,661.56,527.14,689.25,511.02,712.08z M358.38,695.46c-8.63-3.24-18.98-9.28-24.67-20.37
		c2.06-14.38,6.21-28.95,9.71-34.42C348.86,646.06,355.45,668.26,358.38,695.46z M345.9,569.53c5.75,0.29,11.76,0.12,17.78-0.78
		c-2.84,9.29-9.24,18.96-14.39,24.43C347.95,587.37,346.73,578.8,345.9,569.53z M354.92,619.15c3.4-1.68,6.86-4.23,10.37-7.65
		c12.29-11.98,24.48-33.73,24.18-52.27c2.73-1.79,5.38-3.83,7.89-6.21c1.59-1.5,2.83-3.29,3.68-5.24c0.72,1.62,1.71,3.13,2.95,4.45
		c1.32,1.41,2.69,2.69,4.08,3.91c-0.23,0.89-0.39,1.8-0.41,2.75c-0.46,18.61,11.83,40.56,24.19,52.62c5.62,5.47,11.11,8.7,16.39,9.7
		c-26.4,10.66-30.22,58.9-30.53,81.32c-2.9,0.27-5.89,0.46-9.01,0.56c-9.15,0.29-17.57,0.1-25.23-0.57
		C381.63,676.26,375.46,632.42,354.92,619.15z M433.58,569.09c5.83,1.38,11.74,1.97,17.53,2.01c-0.82,8.66-1.99,16.59-3.26,22.07
		C442.76,587.78,436.47,578.27,433.58,569.09z M455.86,644.52c3.45,5.47,7.58,20.17,9.65,34.63c-0.94,1.83-2.04,3.44-3.19,4.95
		c-4.76,5.48-11.26,9.76-19.38,12.89c-0.24,0.07-0.5,0.17-0.74,0.24C443.26,673.58,448.49,649.83,455.86,644.52z M460.15,619.58
		c0.2-0.12,0.4-0.24,0.6-0.38c0.06,0.16,0.12,0.33,0.19,0.48C460.68,619.64,460.41,619.62,460.15,619.58z M464.73,543.66
		c-3.19-0.1-6.15,1.08-8.41,3.05c-2.14,0.13-4.31,0.18-6.48,0.11c13.79-1.99,25.14-10.67,29.84-22.22
		c0.58,5.68,1.44,11.28,2.59,16.8c-2.32,0.78-5.08,1.62-8.16,2.41c-0.11-0.03-0.2-0.08-0.31-0.11c-2.28-0.55-4.55-0.39-6.63,0.29
		C466.38,543.81,465.57,543.69,464.73,543.66z M443.76,522.92c-2.72,0-5.35-0.6-7.62-1.73c-8.16-4.08-18.03-2.76-24.56,3.28
		c-1.03,0.95-2.19,1.77-3.41,2.42c-3.28,1.73-5.79,4.48-7.22,7.81c-1.5-3.31-4.09-6.06-7.4-7.73c-1.36-0.68-2.61-1.56-3.7-2.57
		c-4.1-3.84-9.42-5.84-14.8-5.84c-3.44,0-6.91,0.82-10.09,2.49c-2.34,1.23-5.08,1.88-7.92,1.88c-7.54,0-13.92-4.67-13.92-10.21
		s6.38-10.21,13.92-10.21c2.84,0,5.57,0.65,7.92,1.88c8.19,4.3,18.2,2.95,24.9-3.35c5.91-5.56,15.81-5.58,21.75-0.05
		c6.57,6.11,16.37,7.45,24.4,3.33c2.31-1.18,4.99-1.81,7.77-1.81c7.55,0,13.92,4.68,13.92,10.21S451.31,522.92,443.76,522.92z
		 M343.61,545.06c-3.94-0.38-7.7-1.01-11.12-1.74c-2.7-2.65-6.58-4.03-10.61-3.33c-0.3,0.05-0.58,0.17-0.87,0.25
		c-0.33-0.11-0.65-0.21-0.95-0.31c0.86-4.34,1.55-8.72,2.06-13.16C326.27,535.16,334.02,541.81,343.61,545.06z M589.96,488.58
		c-6.22,2.28-10.34,8.05-10.5,14.68c-0.16,6.69,3.72,12.69,9.89,15.29c31.25,13.19,44.86,25.37,50.78,36.75
		c-20.59-9.84-41.64-18.74-62.76-21.73c-0.77-0.11-1.54-0.17-2.3-0.17c-6.55,0-12.51,3.98-14.97,10.23
		c-1.14,2.89-1.39,5.94-0.87,8.83c-16.75-8.13-35.73-14.99-53.1-15.71c-1.95-9.31-3.04-18.92-3.07-28.71
		c-0.02-6.7-5.46-12.13-12.17-12.13c-0.01,0-0.02,0-0.03,0c-4.61,0.01-8.57,2.62-10.63,6.41c-4.89-13.99-19.39-24.16-36.48-24.16
		c-5.95,0-11.83,1.26-17.12,3.64c-7.25-6.1-16.37-9.43-25.89-9.43c-9.64,0-18.85,3.41-26.14,9.65c-5.41-2.53-11.45-3.86-17.58-3.86
		c-16.58,0-30.7,9.6-35.99,22.95c-2.19-3.13-5.81-5.19-9.92-5.21c-0.01,0-0.02,0-0.03,0c-6.7,0-12.15,5.43-12.17,12.13
		c-0.03,9.89-1.14,19.59-3.13,28.99c-16.22,1.52-33.58,7.93-49.03,15.43c0.53-2.88,0.27-5.93-0.87-8.83
		c-2.74-6.98-9.79-11.1-17.27-10.07c-21.12,2.99-42.18,11.88-62.77,21.73c5.92-11.38,19.52-23.55,50.79-36.75
		c6.17-2.6,10.05-8.61,9.89-15.29c-0.16-6.63-4.29-12.4-10.51-14.68c-23.33-8.58-45.02-25.83-56.47-43.56
		c7.16,2.15,12.97,2.7,17.34,2.73c6.32-0.03,12.06-3.8,14.61-9.6c2.57-5.83,1.47-12.64-2.8-17.34
		c-5.26-5.81-13.78-13.81-26.22-21.86c14.62-8.93,29.8-18.09,46.85-27.24c61.16-32.8,108.93,12.02,112.4,15.41
		c0.83,0.98,1.66,1.87,2.49,2.7c-3.9-1.09-7.98-1.72-12.23-1.72c-24.98,0-45.3,20.32-45.3,45.3s20.32,45.3,45.3,45.3
		s45.3-20.32,45.3-45.3c0-13.81-6.23-26.17-16-34.49c0.81,0.09,1.6,0.14,2.32,0.14c1.89,0,3.48-0.25,4.69-0.55
		c10.01-2.42,16.48-11.79,16.48-23.87c0-37.74-4.25-88.56-24.5-116.41c-16.38-22.53-28.2-46.78-33.79-61.97
		c-1.51-4.1-2.47-10.57-3.4-16.82c-0.75-5.08-1.56-10.39-2.78-15.49c6.66,5.46,13.43,11.79,20.43,19.12
		c4.95,5.19,12.55,6.48,18.94,3.25c6.4-3.25,9.85-10.19,8.58-17.27c-12.99-72.33,42.28-98.51,54.71-103.43
		c12.51,4.95,67.7,31.15,54.72,103.43c-1.28,7.08,2.17,14.02,8.57,17.27c6.39,3.24,14,1.94,18.94-3.25
		c2.81-2.95,5.58-5.69,8.32-8.33c-0.25,1.58-0.48,3.15-0.71,4.7c-0.93,6.25-1.89,12.72-3.4,16.83
		c-5.59,15.19-17.41,39.44-33.79,61.97c-20.25,27.85-24.5,78.67-24.5,116.41c0,12.08,6.47,21.45,16.48,23.87
		c1.22,0.29,2.81,0.55,4.69,0.55c2.54,0,5.62-0.48,9.01-1.93c-11.07,8.27-18.28,21.43-18.28,36.27c0,24.98,20.32,45.3,45.3,45.3
		c24.98,0,45.3-20.32,45.3-45.3s-20.32-45.3-45.3-45.3c-7.1,0-13.81,1.69-19.8,4.62c0.73-0.6,1.48-1.25,2.22-1.96
		c2.81-0.21,5.56-1.35,7.7-3.5c0.49-0.5,49.92-49.12,112.54-15.54c18.19,9.76,34.26,19.54,49.78,29.03
		c-10.98,7.44-18.65,14.7-23.52,20.07c-4.27,4.71-5.37,11.52-2.8,17.35c2.55,5.8,8.29,9.57,14.62,9.6
		c4.48-0.02,10.17-0.58,17.33-2.73C634.98,462.76,613.29,480.01,589.96,488.58z M665.21,387.14c-3.22-1.96-6.48-3.95-9.84-6
		c-15.62-9.56-33.33-20.39-52.85-30.86c-42.94-23.03-81.02-15.05-106.81-3.04c9.44-18.92,23.17-39.72,60.55-68.96
		c29.31-22.92,56.54-47.95,72.48-88.24c3.28-1.82,6.56-3.89,9.81-6.4c-0.19,6.1-0.86,10.96-1.45,15.25
		c-0.84,6.12-1.57,11.4-0.52,17.19c4.65,25.57,17.63,36.48,27.7,41.13c11.31,5.22,24.92,5.48,40.68,0.8
		c-18.99,25.9-36.66,56.46-32.7,86.34c1.68,12.66,7.13,24.02,16.25,33.91C679.92,380.93,672.21,383.95,665.21,387.14z"/>
</g>
</svg>
